<mxfile host="app.diagrams.net" agent="Mozilla/5.0 (Windows NT 10.0; Win64; x64; rv:137.0) Gecko/20100101 Firefox/137.0" version="26.2.14">
  <diagram id="prtHgNgQTEPvFCAcTncT" name="Page-1">
    <mxGraphModel dx="1426" dy="751" grid="1" gridSize="10" guides="1" tooltips="1" connect="1" arrows="1" fold="1" page="1" pageScale="1" pageWidth="827" pageHeight="1169" math="0" shadow="0">
      <root>
        <mxCell id="0" />
        <mxCell id="1" parent="0" />
        <mxCell id="jnYnYD-Lr_v4huSXKw8x-35" value="Neural Geometry Fields" style="swimlane;horizontal=0;whiteSpace=wrap;html=1;startSize=40;fillColor=#ffe6cc;strokeColor=#d79b00;" parent="1" vertex="1">
          <mxGeometry x="40" y="520" width="3000" height="320" as="geometry" />
        </mxCell>
        <mxCell id="jnYnYD-Lr_v4huSXKw8x-114" value="When loop done" style="text;html=1;align=center;verticalAlign=middle;whiteSpace=wrap;rounded=0;" parent="jnYnYD-Lr_v4huSXKw8x-35" vertex="1">
          <mxGeometry x="2130" y="20" width="60" height="80" as="geometry" />
        </mxCell>
        <mxCell id="jnYnYD-Lr_v4huSXKw8x-51" value="Data Preprocessing" style="swimlane;whiteSpace=wrap;html=1;startSize=40;fillColor=#f8cecc;strokeColor=#b85450;" parent="1" vertex="1">
          <mxGeometry x="560" y="480" width="480" height="800" as="geometry" />
        </mxCell>
        <mxCell id="jnYnYD-Lr_v4huSXKw8x-64" value="Compute signed distances" style="rounded=1;whiteSpace=wrap;html=1;fillColor=#ffe6cc;strokeColor=#d79b00;" parent="jnYnYD-Lr_v4huSXKw8x-51" vertex="1">
          <mxGeometry x="280" y="80" width="160" height="80" as="geometry" />
        </mxCell>
        <mxCell id="jnYnYD-Lr_v4huSXKw8x-68" value="&lt;div&gt;Apply positional encoding&lt;/div&gt;" style="rounded=1;whiteSpace=wrap;html=1;fillColor=#ffe6cc;strokeColor=#d79b00;" parent="jnYnYD-Lr_v4huSXKw8x-51" vertex="1">
          <mxGeometry x="280" y="239.38" width="160" height="80.62" as="geometry" />
        </mxCell>
        <mxCell id="jnYnYD-Lr_v4huSXKw8x-15" value="Sample 3d points" style="rounded=1;whiteSpace=wrap;html=1;fillColor=#ffe6cc;strokeColor=#d79b00;" parent="jnYnYD-Lr_v4huSXKw8x-51" vertex="1">
          <mxGeometry x="40" y="161.25" width="160" height="78.75" as="geometry" />
        </mxCell>
        <mxCell id="jnYnYD-Lr_v4huSXKw8x-65" value="" style="edgeStyle=orthogonalEdgeStyle;shape=connector;rounded=0;orthogonalLoop=1;jettySize=auto;html=1;strokeColor=#6c8ebf;strokeWidth=5;align=center;verticalAlign=middle;fontFamily=Helvetica;fontSize=11;fontColor=default;labelBackgroundColor=default;endArrow=classic;fillColor=#dae8fc;entryX=0;entryY=0.5;entryDx=0;entryDy=0;" parent="jnYnYD-Lr_v4huSXKw8x-51" source="jnYnYD-Lr_v4huSXKw8x-15" target="jnYnYD-Lr_v4huSXKw8x-64" edge="1">
          <mxGeometry relative="1" as="geometry" />
        </mxCell>
        <mxCell id="jnYnYD-Lr_v4huSXKw8x-71" style="edgeStyle=orthogonalEdgeStyle;shape=connector;rounded=0;orthogonalLoop=1;jettySize=auto;html=1;exitX=1;exitY=0.5;exitDx=0;exitDy=0;strokeColor=#6c8ebf;strokeWidth=5;align=center;verticalAlign=middle;fontFamily=Helvetica;fontSize=11;fontColor=default;labelBackgroundColor=default;endArrow=classic;fillColor=#dae8fc;" parent="jnYnYD-Lr_v4huSXKw8x-51" source="jnYnYD-Lr_v4huSXKw8x-15" target="jnYnYD-Lr_v4huSXKw8x-68" edge="1">
          <mxGeometry relative="1" as="geometry" />
        </mxCell>
        <mxCell id="jnYnYD-Lr_v4huSXKw8x-52" value="Data Acquisition" style="swimlane;whiteSpace=wrap;html=1;startSize=40;fillColor=#f8cecc;strokeColor=#b85450;" parent="1" vertex="1">
          <mxGeometry x="80" y="480" width="400" height="800" as="geometry" />
        </mxCell>
        <mxCell id="jnYnYD-Lr_v4huSXKw8x-41" value="Depth maps" style="rounded=1;whiteSpace=wrap;html=1;fillColor=#ffe6cc;strokeColor=#d79b00;" parent="jnYnYD-Lr_v4huSXKw8x-52" vertex="1">
          <mxGeometry x="280" y="80" width="80" height="40" as="geometry" />
        </mxCell>
        <mxCell id="jnYnYD-Lr_v4huSXKw8x-40" value="3D scans" style="rounded=1;whiteSpace=wrap;html=1;fillColor=#ffe6cc;strokeColor=#d79b00;" parent="jnYnYD-Lr_v4huSXKw8x-52" vertex="1">
          <mxGeometry x="280" y="280" width="80" height="40" as="geometry" />
        </mxCell>
        <mxCell id="jnYnYD-Lr_v4huSXKw8x-39" value="Capture multi-view images " style="rounded=1;whiteSpace=wrap;html=1;fillColor=#ffe6cc;strokeColor=#d79b00;" parent="jnYnYD-Lr_v4huSXKw8x-52" vertex="1">
          <mxGeometry x="40" y="161.25" width="160" height="78.75" as="geometry" />
        </mxCell>
        <mxCell id="jnYnYD-Lr_v4huSXKw8x-37" style="edgeStyle=orthogonalEdgeStyle;shape=connector;rounded=0;orthogonalLoop=1;jettySize=auto;html=1;exitX=1;exitY=0.5;exitDx=0;exitDy=0;entryX=0;entryY=0.5;entryDx=0;entryDy=0;strokeColor=#82b366;strokeWidth=5;align=center;verticalAlign=middle;fontFamily=Helvetica;fontSize=11;fontColor=default;labelBackgroundColor=default;endArrow=classic;fillColor=#d5e8d4;" parent="jnYnYD-Lr_v4huSXKw8x-52" source="jnYnYD-Lr_v4huSXKw8x-39" target="jnYnYD-Lr_v4huSXKw8x-41" edge="1">
          <mxGeometry relative="1" as="geometry" />
        </mxCell>
        <mxCell id="jnYnYD-Lr_v4huSXKw8x-38" style="edgeStyle=orthogonalEdgeStyle;shape=connector;rounded=0;orthogonalLoop=1;jettySize=auto;html=1;exitX=1;exitY=0.5;exitDx=0;exitDy=0;entryX=0;entryY=0.5;entryDx=0;entryDy=0;strokeColor=#82b366;strokeWidth=5;align=center;verticalAlign=middle;fontFamily=Helvetica;fontSize=11;fontColor=default;labelBackgroundColor=default;endArrow=classic;fillColor=#d5e8d4;" parent="jnYnYD-Lr_v4huSXKw8x-52" source="jnYnYD-Lr_v4huSXKw8x-39" target="jnYnYD-Lr_v4huSXKw8x-40" edge="1">
          <mxGeometry relative="1" as="geometry" />
        </mxCell>
        <mxCell id="jnYnYD-Lr_v4huSXKw8x-33" style="edgeStyle=orthogonalEdgeStyle;shape=connector;rounded=0;orthogonalLoop=1;jettySize=auto;html=1;exitX=1;exitY=0.5;exitDx=0;exitDy=0;entryX=0;entryY=0.5;entryDx=0;entryDy=0;strokeColor=#82b366;strokeWidth=5;align=center;verticalAlign=middle;fontFamily=Helvetica;fontSize=11;fontColor=default;labelBackgroundColor=default;endArrow=classic;fillColor=#d5e8d4;spacing=2;" parent="1" source="jnYnYD-Lr_v4huSXKw8x-41" target="jnYnYD-Lr_v4huSXKw8x-15" edge="1">
          <mxGeometry relative="1" as="geometry">
            <mxPoint x="440" y="576.875" as="sourcePoint" />
          </mxGeometry>
        </mxCell>
        <mxCell id="jnYnYD-Lr_v4huSXKw8x-34" style="edgeStyle=orthogonalEdgeStyle;shape=connector;rounded=0;orthogonalLoop=1;jettySize=auto;html=1;exitX=1;exitY=0.5;exitDx=0;exitDy=0;entryX=0;entryY=0.5;entryDx=0;entryDy=0;strokeColor=#82b366;strokeWidth=5;align=center;verticalAlign=middle;fontFamily=Helvetica;fontSize=11;fontColor=default;labelBackgroundColor=default;endArrow=classic;fillColor=#d5e8d4;" parent="1" source="jnYnYD-Lr_v4huSXKw8x-40" target="jnYnYD-Lr_v4huSXKw8x-15" edge="1">
          <mxGeometry relative="1" as="geometry">
            <mxPoint x="440" y="700.625" as="sourcePoint" />
          </mxGeometry>
        </mxCell>
        <mxCell id="jnYnYD-Lr_v4huSXKw8x-73" value="Define Neural Field" style="swimlane;whiteSpace=wrap;html=1;startSize=40;fillColor=#f8cecc;strokeColor=#b85450;" parent="1" vertex="1">
          <mxGeometry x="1120" y="480" width="480" height="360" as="geometry" />
        </mxCell>
        <mxCell id="jnYnYD-Lr_v4huSXKw8x-75" value="Initalize weights" style="rounded=1;whiteSpace=wrap;html=1;fillColor=#ffe6cc;strokeColor=#d79b00;" parent="jnYnYD-Lr_v4huSXKw8x-73" vertex="1">
          <mxGeometry x="280" y="80" width="160" height="80" as="geometry" />
        </mxCell>
        <mxCell id="jnYnYD-Lr_v4huSXKw8x-88" style="edgeStyle=orthogonalEdgeStyle;shape=connector;rounded=0;orthogonalLoop=1;jettySize=auto;html=1;entryX=0;entryY=0.5;entryDx=0;entryDy=0;strokeColor=#6c8ebf;strokeWidth=5;align=center;verticalAlign=middle;fontFamily=Helvetica;fontSize=11;fontColor=default;labelBackgroundColor=default;endArrow=classic;fillColor=#dae8fc;" parent="jnYnYD-Lr_v4huSXKw8x-73" source="jnYnYD-Lr_v4huSXKw8x-76" target="jnYnYD-Lr_v4huSXKw8x-87" edge="1">
          <mxGeometry relative="1" as="geometry" />
        </mxCell>
        <mxCell id="jnYnYD-Lr_v4huSXKw8x-76" value="&lt;div&gt;Build MLP&amp;nbsp;&lt;/div&gt;&lt;div&gt;(Multilayer Perceptron)&lt;/div&gt;" style="rounded=1;whiteSpace=wrap;html=1;fillColor=#ffe6cc;strokeColor=#d79b00;" parent="jnYnYD-Lr_v4huSXKw8x-73" vertex="1">
          <mxGeometry x="40" y="161.25" width="160" height="78.75" as="geometry" />
        </mxCell>
        <mxCell id="jnYnYD-Lr_v4huSXKw8x-78" style="edgeStyle=orthogonalEdgeStyle;shape=connector;rounded=0;orthogonalLoop=1;jettySize=auto;html=1;exitX=1;exitY=0.5;exitDx=0;exitDy=0;strokeColor=#6c8ebf;strokeWidth=5;align=center;verticalAlign=middle;fontFamily=Helvetica;fontSize=11;fontColor=default;labelBackgroundColor=default;endArrow=classic;fillColor=#dae8fc;entryX=0;entryY=0.5;entryDx=0;entryDy=0;" parent="jnYnYD-Lr_v4huSXKw8x-73" source="jnYnYD-Lr_v4huSXKw8x-76" target="jnYnYD-Lr_v4huSXKw8x-75" edge="1">
          <mxGeometry relative="1" as="geometry" />
        </mxCell>
        <mxCell id="jnYnYD-Lr_v4huSXKw8x-87" value="Defining losses" style="rounded=1;whiteSpace=wrap;html=1;fillColor=#ffe6cc;strokeColor=#d79b00;" parent="jnYnYD-Lr_v4huSXKw8x-73" vertex="1">
          <mxGeometry x="280" y="242.5" width="160" height="77.5" as="geometry" />
        </mxCell>
        <mxCell id="jnYnYD-Lr_v4huSXKw8x-80" style="edgeStyle=orthogonalEdgeStyle;shape=connector;rounded=0;orthogonalLoop=1;jettySize=auto;html=1;exitX=1;exitY=0.5;exitDx=0;exitDy=0;strokeColor=#6c8ebf;strokeWidth=5;align=center;verticalAlign=middle;fontFamily=Helvetica;fontSize=11;fontColor=default;labelBackgroundColor=default;endArrow=classic;fillColor=#dae8fc;entryX=0;entryY=0.5;entryDx=0;entryDy=0;" parent="1" source="jnYnYD-Lr_v4huSXKw8x-64" target="jnYnYD-Lr_v4huSXKw8x-76" edge="1">
          <mxGeometry relative="1" as="geometry">
            <mxPoint x="1100" y="640" as="targetPoint" />
          </mxGeometry>
        </mxCell>
        <mxCell id="jnYnYD-Lr_v4huSXKw8x-81" style="edgeStyle=orthogonalEdgeStyle;shape=connector;rounded=0;orthogonalLoop=1;jettySize=auto;html=1;entryX=0;entryY=0.5;entryDx=0;entryDy=0;strokeColor=#6c8ebf;strokeWidth=5;align=center;verticalAlign=middle;fontFamily=Helvetica;fontSize=11;fontColor=default;labelBackgroundColor=default;endArrow=classic;fillColor=#dae8fc;" parent="1" source="jnYnYD-Lr_v4huSXKw8x-68" target="jnYnYD-Lr_v4huSXKw8x-76" edge="1">
          <mxGeometry relative="1" as="geometry" />
        </mxCell>
        <mxCell id="jnYnYD-Lr_v4huSXKw8x-89" value="Training Loop" style="swimlane;whiteSpace=wrap;html=1;startSize=40;fillColor=#f8cecc;strokeColor=#b85450;" parent="1" vertex="1">
          <mxGeometry x="1680" y="480" width="480" height="360" as="geometry" />
        </mxCell>
        <mxCell id="jnYnYD-Lr_v4huSXKw8x-99" value="" style="edgeStyle=orthogonalEdgeStyle;shape=connector;rounded=0;orthogonalLoop=1;jettySize=auto;html=1;strokeColor=#6c8ebf;strokeWidth=5;align=center;verticalAlign=middle;fontFamily=Helvetica;fontSize=11;fontColor=default;labelBackgroundColor=default;endArrow=classic;fillColor=#dae8fc;" parent="jnYnYD-Lr_v4huSXKw8x-89" source="jnYnYD-Lr_v4huSXKw8x-90" target="jnYnYD-Lr_v4huSXKw8x-94" edge="1">
          <mxGeometry relative="1" as="geometry" />
        </mxCell>
        <mxCell id="jnYnYD-Lr_v4huSXKw8x-90" value="Forward pass" style="rounded=1;whiteSpace=wrap;html=1;fillColor=#ffe6cc;strokeColor=#d79b00;" parent="jnYnYD-Lr_v4huSXKw8x-89" vertex="1">
          <mxGeometry x="40" y="242.5" width="160" height="77.5" as="geometry" />
        </mxCell>
        <mxCell id="jnYnYD-Lr_v4huSXKw8x-98" style="edgeStyle=orthogonalEdgeStyle;shape=connector;rounded=0;orthogonalLoop=1;jettySize=auto;html=1;exitX=0.5;exitY=1;exitDx=0;exitDy=0;entryX=0.5;entryY=0;entryDx=0;entryDy=0;strokeColor=#6c8ebf;strokeWidth=5;align=center;verticalAlign=middle;fontFamily=Helvetica;fontSize=11;fontColor=default;labelBackgroundColor=default;endArrow=classic;fillColor=#dae8fc;" parent="jnYnYD-Lr_v4huSXKw8x-89" source="jnYnYD-Lr_v4huSXKw8x-92" target="jnYnYD-Lr_v4huSXKw8x-90" edge="1">
          <mxGeometry relative="1" as="geometry" />
        </mxCell>
        <mxCell id="jnYnYD-Lr_v4huSXKw8x-92" value="Batch sampling" style="rounded=1;whiteSpace=wrap;html=1;fillColor=#ffe6cc;strokeColor=#d79b00;" parent="jnYnYD-Lr_v4huSXKw8x-89" vertex="1">
          <mxGeometry x="40" y="80" width="160" height="80" as="geometry" />
        </mxCell>
        <mxCell id="jnYnYD-Lr_v4huSXKw8x-100" value="" style="edgeStyle=orthogonalEdgeStyle;shape=connector;rounded=0;orthogonalLoop=1;jettySize=auto;html=1;strokeColor=#6c8ebf;strokeWidth=5;align=center;verticalAlign=middle;fontFamily=Helvetica;fontSize=11;fontColor=default;labelBackgroundColor=default;endArrow=classic;fillColor=#dae8fc;" parent="jnYnYD-Lr_v4huSXKw8x-89" source="jnYnYD-Lr_v4huSXKw8x-94" target="jnYnYD-Lr_v4huSXKw8x-95" edge="1">
          <mxGeometry relative="1" as="geometry" />
        </mxCell>
        <mxCell id="jnYnYD-Lr_v4huSXKw8x-94" value="Backpropagation" style="rounded=1;whiteSpace=wrap;html=1;fillColor=#ffe6cc;strokeColor=#d79b00;" parent="jnYnYD-Lr_v4huSXKw8x-89" vertex="1">
          <mxGeometry x="280" y="242.5" width="160" height="77.5" as="geometry" />
        </mxCell>
        <mxCell id="jnYnYD-Lr_v4huSXKw8x-101" value="" style="edgeStyle=orthogonalEdgeStyle;shape=connector;rounded=0;orthogonalLoop=1;jettySize=auto;html=1;strokeColor=#b85450;strokeWidth=5;align=center;verticalAlign=middle;fontFamily=Helvetica;fontSize=11;fontColor=default;labelBackgroundColor=default;endArrow=classic;fillColor=#f8cecc;" parent="jnYnYD-Lr_v4huSXKw8x-89" source="jnYnYD-Lr_v4huSXKw8x-95" target="jnYnYD-Lr_v4huSXKw8x-92" edge="1">
          <mxGeometry relative="1" as="geometry" />
        </mxCell>
        <mxCell id="jnYnYD-Lr_v4huSXKw8x-95" value="Optimizer step" style="rounded=1;whiteSpace=wrap;html=1;fillColor=#ffe6cc;strokeColor=#d79b00;" parent="jnYnYD-Lr_v4huSXKw8x-89" vertex="1">
          <mxGeometry x="280" y="80" width="160" height="80" as="geometry" />
        </mxCell>
        <mxCell id="jnYnYD-Lr_v4huSXKw8x-102" value="While in loop" style="text;html=1;align=center;verticalAlign=middle;whiteSpace=wrap;rounded=0;" parent="jnYnYD-Lr_v4huSXKw8x-89" vertex="1">
          <mxGeometry x="210" y="60" width="60" height="80" as="geometry" />
        </mxCell>
        <mxCell id="jnYnYD-Lr_v4huSXKw8x-96" style="edgeStyle=orthogonalEdgeStyle;shape=connector;rounded=0;orthogonalLoop=1;jettySize=auto;html=1;exitX=1;exitY=0.5;exitDx=0;exitDy=0;strokeColor=#6c8ebf;strokeWidth=5;align=center;verticalAlign=middle;fontFamily=Helvetica;fontSize=11;fontColor=default;labelBackgroundColor=default;endArrow=classic;fillColor=#dae8fc;" parent="1" source="jnYnYD-Lr_v4huSXKw8x-75" target="jnYnYD-Lr_v4huSXKw8x-92" edge="1">
          <mxGeometry relative="1" as="geometry" />
        </mxCell>
        <mxCell id="jnYnYD-Lr_v4huSXKw8x-97" style="edgeStyle=orthogonalEdgeStyle;shape=connector;rounded=0;orthogonalLoop=1;jettySize=auto;html=1;entryX=0;entryY=0.5;entryDx=0;entryDy=0;strokeColor=#6c8ebf;strokeWidth=5;align=center;verticalAlign=middle;fontFamily=Helvetica;fontSize=11;fontColor=default;labelBackgroundColor=default;endArrow=classic;fillColor=#dae8fc;" parent="1" source="jnYnYD-Lr_v4huSXKw8x-87" target="jnYnYD-Lr_v4huSXKw8x-92" edge="1">
          <mxGeometry relative="1" as="geometry" />
        </mxCell>
        <mxCell id="jnYnYD-Lr_v4huSXKw8x-103" value="Surface Extraction" style="swimlane;whiteSpace=wrap;html=1;startSize=40;fillColor=#f8cecc;strokeColor=#b85450;" parent="1" vertex="1">
          <mxGeometry x="2240" y="480" width="480" height="360" as="geometry" />
        </mxCell>
        <mxCell id="jnYnYD-Lr_v4huSXKw8x-226" style="edgeStyle=orthogonalEdgeStyle;shape=connector;rounded=0;orthogonalLoop=1;jettySize=auto;html=1;entryX=0;entryY=0.5;entryDx=0;entryDy=0;strokeColor=#82B366;strokeWidth=5;align=center;verticalAlign=middle;fontFamily=Helvetica;fontSize=11;fontColor=default;labelBackgroundColor=default;endArrow=classic;fillColor=#dae8fc;" parent="jnYnYD-Lr_v4huSXKw8x-103" source="jnYnYD-Lr_v4huSXKw8x-107" target="jnYnYD-Lr_v4huSXKw8x-115" edge="1">
          <mxGeometry relative="1" as="geometry" />
        </mxCell>
        <mxCell id="jnYnYD-Lr_v4huSXKw8x-107" value="Evaluate MLP" style="rounded=1;whiteSpace=wrap;html=1;fillColor=#ffe6cc;strokeColor=#d79b00;" parent="jnYnYD-Lr_v4huSXKw8x-103" vertex="1">
          <mxGeometry x="40" y="161.25" width="160" height="78.75" as="geometry" />
        </mxCell>
        <mxCell id="jnYnYD-Lr_v4huSXKw8x-115" value="&lt;div&gt;Marching Cubes&lt;/div&gt;&lt;div&gt;(produces mesh)&lt;/div&gt;" style="rounded=1;whiteSpace=wrap;html=1;fillColor=#ffe6cc;strokeColor=#d79b00;" parent="jnYnYD-Lr_v4huSXKw8x-103" vertex="1">
          <mxGeometry x="280" y="80" width="160" height="80" as="geometry" />
        </mxCell>
        <mxCell id="jnYnYD-Lr_v4huSXKw8x-113" style="edgeStyle=orthogonalEdgeStyle;shape=connector;rounded=0;orthogonalLoop=1;jettySize=auto;html=1;entryX=0;entryY=0.5;entryDx=0;entryDy=0;strokeColor=#6c8ebf;strokeWidth=5;align=center;verticalAlign=middle;fontFamily=Helvetica;fontSize=11;fontColor=default;labelBackgroundColor=default;endArrow=classic;fillColor=#dae8fc;" parent="1" source="jnYnYD-Lr_v4huSXKw8x-95" target="jnYnYD-Lr_v4huSXKw8x-107" edge="1">
          <mxGeometry relative="1" as="geometry" />
        </mxCell>
        <mxCell id="jnYnYD-Lr_v4huSXKw8x-117" value="Rendering" style="swimlane;whiteSpace=wrap;html=1;startSize=40;fillColor=#f8cecc;strokeColor=#b85450;" parent="1" vertex="1">
          <mxGeometry x="2800" y="480" width="240" height="800" as="geometry" />
        </mxCell>
        <mxCell id="jnYnYD-Lr_v4huSXKw8x-119" value="Standard mesh rendering" style="rounded=1;whiteSpace=wrap;html=1;fillColor=#ffe6cc;strokeColor=#d79b00;" parent="jnYnYD-Lr_v4huSXKw8x-117" vertex="1">
          <mxGeometry x="40" y="80" width="160" height="80" as="geometry" />
        </mxCell>
        <mxCell id="jnYnYD-Lr_v4huSXKw8x-121" value="Differentiable volumn rendering" style="rounded=1;whiteSpace=wrap;html=1;fillColor=#ffe6cc;strokeColor=#d79b00;" parent="jnYnYD-Lr_v4huSXKw8x-117" vertex="1">
          <mxGeometry x="40" y="240" width="160" height="80" as="geometry" />
        </mxCell>
        <mxCell id="jnYnYD-Lr_v4huSXKw8x-126" value="Traditional 3D Geometry Pipeline" style="swimlane;horizontal=0;whiteSpace=wrap;html=1;startSize=40;fillColor=#e1d5e7;strokeColor=#9673a6;" parent="1" vertex="1">
          <mxGeometry x="40" y="960" width="3000" height="320" as="geometry" />
        </mxCell>
        <mxCell id="jnYnYD-Lr_v4huSXKw8x-137" style="edgeStyle=orthogonalEdgeStyle;shape=connector;rounded=0;orthogonalLoop=1;jettySize=auto;html=1;exitX=1;exitY=0.5;exitDx=0;exitDy=0;entryX=0;entryY=0.5;entryDx=0;entryDy=0;strokeColor=#82b366;strokeWidth=5;align=center;verticalAlign=middle;fontFamily=Helvetica;fontSize=11;fontColor=default;labelBackgroundColor=default;endArrow=classic;fillColor=#d5e8d4;" parent="jnYnYD-Lr_v4huSXKw8x-126" source="jnYnYD-Lr_v4huSXKw8x-132" target="jnYnYD-Lr_v4huSXKw8x-133" edge="1">
          <mxGeometry relative="1" as="geometry" />
        </mxCell>
        <mxCell id="jnYnYD-Lr_v4huSXKw8x-138" style="edgeStyle=orthogonalEdgeStyle;shape=connector;rounded=0;orthogonalLoop=1;jettySize=auto;html=1;entryX=0;entryY=0.5;entryDx=0;entryDy=0;strokeColor=#82b366;strokeWidth=5;align=center;verticalAlign=middle;fontFamily=Helvetica;fontSize=11;fontColor=default;labelBackgroundColor=default;endArrow=classic;fillColor=#d5e8d4;" parent="jnYnYD-Lr_v4huSXKw8x-126" source="jnYnYD-Lr_v4huSXKw8x-132" target="jnYnYD-Lr_v4huSXKw8x-134" edge="1">
          <mxGeometry relative="1" as="geometry" />
        </mxCell>
        <mxCell id="jnYnYD-Lr_v4huSXKw8x-139" style="edgeStyle=orthogonalEdgeStyle;shape=connector;rounded=0;orthogonalLoop=1;jettySize=auto;html=1;entryX=0;entryY=0.5;entryDx=0;entryDy=0;strokeColor=#82b366;strokeWidth=5;align=center;verticalAlign=middle;fontFamily=Helvetica;fontSize=11;fontColor=default;labelBackgroundColor=default;endArrow=classic;fillColor=#d5e8d4;" parent="jnYnYD-Lr_v4huSXKw8x-126" source="jnYnYD-Lr_v4huSXKw8x-132" target="jnYnYD-Lr_v4huSXKw8x-135" edge="1">
          <mxGeometry relative="1" as="geometry" />
        </mxCell>
        <mxCell id="jnYnYD-Lr_v4huSXKw8x-140" style="edgeStyle=orthogonalEdgeStyle;shape=connector;rounded=0;orthogonalLoop=1;jettySize=auto;html=1;entryX=0;entryY=0.5;entryDx=0;entryDy=0;strokeColor=#82b366;strokeWidth=5;align=center;verticalAlign=middle;fontFamily=Helvetica;fontSize=11;fontColor=default;labelBackgroundColor=default;endArrow=classic;fillColor=#d5e8d4;" parent="jnYnYD-Lr_v4huSXKw8x-126" source="jnYnYD-Lr_v4huSXKw8x-132" target="jnYnYD-Lr_v4huSXKw8x-136" edge="1">
          <mxGeometry relative="1" as="geometry" />
        </mxCell>
        <mxCell id="jnYnYD-Lr_v4huSXKw8x-132" value="Capture " style="rounded=1;whiteSpace=wrap;html=1;fillColor=#e1d5e7;strokeColor=#9673a6;" parent="jnYnYD-Lr_v4huSXKw8x-126" vertex="1">
          <mxGeometry x="80" y="119.38" width="160" height="80.62" as="geometry" />
        </mxCell>
        <mxCell id="jnYnYD-Lr_v4huSXKw8x-144" style="edgeStyle=orthogonalEdgeStyle;shape=connector;rounded=0;orthogonalLoop=1;jettySize=auto;html=1;exitX=1;exitY=0.5;exitDx=0;exitDy=0;entryX=0;entryY=0.5;entryDx=0;entryDy=0;strokeColor=#82b366;strokeWidth=5;align=center;verticalAlign=middle;fontFamily=Helvetica;fontSize=11;fontColor=default;labelBackgroundColor=default;endArrow=classic;fillColor=#d5e8d4;" parent="jnYnYD-Lr_v4huSXKw8x-126" source="jnYnYD-Lr_v4huSXKw8x-133" target="jnYnYD-Lr_v4huSXKw8x-141" edge="1">
          <mxGeometry relative="1" as="geometry" />
        </mxCell>
        <mxCell id="jnYnYD-Lr_v4huSXKw8x-133" value="LiDAR" style="rounded=1;whiteSpace=wrap;html=1;fillColor=#e1d5e7;strokeColor=#9673a6;" parent="jnYnYD-Lr_v4huSXKw8x-126" vertex="1">
          <mxGeometry x="320" y="30" width="80" height="40" as="geometry" />
        </mxCell>
        <mxCell id="jnYnYD-Lr_v4huSXKw8x-145" style="edgeStyle=orthogonalEdgeStyle;shape=connector;rounded=0;orthogonalLoop=1;jettySize=auto;html=1;entryX=0;entryY=0.5;entryDx=0;entryDy=0;strokeColor=#82b366;strokeWidth=5;align=center;verticalAlign=middle;fontFamily=Helvetica;fontSize=11;fontColor=default;labelBackgroundColor=default;endArrow=classic;fillColor=#d5e8d4;" parent="jnYnYD-Lr_v4huSXKw8x-126" source="jnYnYD-Lr_v4huSXKw8x-134" target="jnYnYD-Lr_v4huSXKw8x-141" edge="1">
          <mxGeometry relative="1" as="geometry" />
        </mxCell>
        <mxCell id="jnYnYD-Lr_v4huSXKw8x-134" value="Depth sensors" style="rounded=1;whiteSpace=wrap;html=1;fillColor=#e1d5e7;strokeColor=#9673a6;" parent="jnYnYD-Lr_v4huSXKw8x-126" vertex="1">
          <mxGeometry x="320" y="100" width="80" height="40" as="geometry" />
        </mxCell>
        <mxCell id="jnYnYD-Lr_v4huSXKw8x-146" style="edgeStyle=orthogonalEdgeStyle;shape=connector;rounded=0;orthogonalLoop=1;jettySize=auto;html=1;entryX=0;entryY=0.5;entryDx=0;entryDy=0;strokeColor=#82b366;strokeWidth=5;align=center;verticalAlign=middle;fontFamily=Helvetica;fontSize=11;fontColor=default;labelBackgroundColor=default;endArrow=classic;fillColor=#d5e8d4;" parent="jnYnYD-Lr_v4huSXKw8x-126" source="jnYnYD-Lr_v4huSXKw8x-135" target="jnYnYD-Lr_v4huSXKw8x-141" edge="1">
          <mxGeometry relative="1" as="geometry" />
        </mxCell>
        <mxCell id="jnYnYD-Lr_v4huSXKw8x-135" value="Stereo cameras" style="rounded=1;whiteSpace=wrap;html=1;fillColor=#e1d5e7;strokeColor=#9673a6;" parent="jnYnYD-Lr_v4huSXKw8x-126" vertex="1">
          <mxGeometry x="320" y="180" width="80" height="40" as="geometry" />
        </mxCell>
        <mxCell id="jnYnYD-Lr_v4huSXKw8x-147" style="edgeStyle=orthogonalEdgeStyle;shape=connector;rounded=0;orthogonalLoop=1;jettySize=auto;html=1;entryX=0;entryY=0.5;entryDx=0;entryDy=0;strokeColor=#82b366;strokeWidth=5;align=center;verticalAlign=middle;fontFamily=Helvetica;fontSize=11;fontColor=default;labelBackgroundColor=default;endArrow=classic;fillColor=#d5e8d4;" parent="jnYnYD-Lr_v4huSXKw8x-126" source="jnYnYD-Lr_v4huSXKw8x-136" target="jnYnYD-Lr_v4huSXKw8x-141" edge="1">
          <mxGeometry relative="1" as="geometry" />
        </mxCell>
        <mxCell id="jnYnYD-Lr_v4huSXKw8x-148" style="edgeStyle=orthogonalEdgeStyle;shape=connector;rounded=0;orthogonalLoop=1;jettySize=auto;html=1;entryX=0;entryY=0.5;entryDx=0;entryDy=0;strokeColor=#82B366;strokeWidth=5;align=center;verticalAlign=middle;fontFamily=Helvetica;fontSize=11;fontColor=default;labelBackgroundColor=default;endArrow=classic;fillColor=#d5e8d4;" parent="jnYnYD-Lr_v4huSXKw8x-126" source="jnYnYD-Lr_v4huSXKw8x-136" target="jnYnYD-Lr_v4huSXKw8x-143" edge="1">
          <mxGeometry relative="1" as="geometry" />
        </mxCell>
        <mxCell id="jnYnYD-Lr_v4huSXKw8x-136" value="Photo-grammetry" style="rounded=1;whiteSpace=wrap;html=1;fillColor=#e1d5e7;strokeColor=#9673a6;" parent="jnYnYD-Lr_v4huSXKw8x-126" vertex="1">
          <mxGeometry x="320" y="260" width="80" height="40" as="geometry" />
        </mxCell>
        <mxCell id="jnYnYD-Lr_v4huSXKw8x-141" value="Denoise" style="rounded=1;whiteSpace=wrap;html=1;fillColor=#e1d5e7;strokeColor=#9673a6;" parent="jnYnYD-Lr_v4huSXKw8x-126" vertex="1">
          <mxGeometry x="560" y="38.13" width="160" height="81.87" as="geometry" />
        </mxCell>
        <mxCell id="jnYnYD-Lr_v4huSXKw8x-142" value="Merging into point cloud" style="rounded=1;whiteSpace=wrap;html=1;fillColor=#e1d5e7;strokeColor=#9673a6;" parent="jnYnYD-Lr_v4huSXKw8x-126" vertex="1">
          <mxGeometry x="800" y="160.31" width="160" height="79.38" as="geometry" />
        </mxCell>
        <mxCell id="jnYnYD-Lr_v4huSXKw8x-149" style="edgeStyle=orthogonalEdgeStyle;shape=connector;rounded=0;orthogonalLoop=1;jettySize=auto;html=1;entryX=0;entryY=0.5;entryDx=0;entryDy=0;strokeColor=#6c8ebf;strokeWidth=5;align=center;verticalAlign=middle;fontFamily=Helvetica;fontSize=11;fontColor=default;labelBackgroundColor=default;endArrow=classic;fillColor=#dae8fc;" parent="jnYnYD-Lr_v4huSXKw8x-126" source="jnYnYD-Lr_v4huSXKw8x-143" target="jnYnYD-Lr_v4huSXKw8x-142" edge="1">
          <mxGeometry relative="1" as="geometry" />
        </mxCell>
        <mxCell id="jnYnYD-Lr_v4huSXKw8x-143" value="Register" style="rounded=1;whiteSpace=wrap;html=1;fillColor=#e1d5e7;strokeColor=#9673a6;" parent="jnYnYD-Lr_v4huSXKw8x-126" vertex="1">
          <mxGeometry x="560" y="160.62" width="160" height="79.38" as="geometry" />
        </mxCell>
        <mxCell id="jnYnYD-Lr_v4huSXKw8x-202" value="Rasterization" style="rounded=1;whiteSpace=wrap;html=1;fillColor=#e1d5e7;strokeColor=#9673a6;" parent="jnYnYD-Lr_v4huSXKw8x-126" vertex="1">
          <mxGeometry x="2800" y="38.129999999999995" width="160" height="77.5" as="geometry" />
        </mxCell>
        <mxCell id="jnYnYD-Lr_v4huSXKw8x-203" value="Ray tracing" style="rounded=1;whiteSpace=wrap;html=1;fillColor=#e1d5e7;strokeColor=#9673a6;" parent="jnYnYD-Lr_v4huSXKw8x-126" vertex="1">
          <mxGeometry x="2800" y="200" width="160" height="77.5" as="geometry" />
        </mxCell>
        <mxCell id="jnYnYD-Lr_v4huSXKw8x-151" value="Mesh Construction" style="swimlane;whiteSpace=wrap;html=1;startSize=40;fillColor=#f8cecc;strokeColor=#b85450;" parent="1" vertex="1">
          <mxGeometry x="1120" y="920" width="480" height="360" as="geometry" />
        </mxCell>
        <mxCell id="jnYnYD-Lr_v4huSXKw8x-160" style="edgeStyle=orthogonalEdgeStyle;shape=connector;rounded=0;orthogonalLoop=1;jettySize=auto;html=1;exitX=1;exitY=0.5;exitDx=0;exitDy=0;entryX=0;entryY=0.5;entryDx=0;entryDy=0;strokeColor=#82B366;strokeWidth=5;align=center;verticalAlign=middle;fontFamily=Helvetica;fontSize=11;fontColor=default;labelBackgroundColor=default;endArrow=classic;fillColor=#d5e8d4;" parent="jnYnYD-Lr_v4huSXKw8x-151" source="jnYnYD-Lr_v4huSXKw8x-154" target="jnYnYD-Lr_v4huSXKw8x-157" edge="1">
          <mxGeometry relative="1" as="geometry" />
        </mxCell>
        <mxCell id="jnYnYD-Lr_v4huSXKw8x-161" style="edgeStyle=orthogonalEdgeStyle;shape=connector;rounded=0;orthogonalLoop=1;jettySize=auto;html=1;entryX=0;entryY=0.5;entryDx=0;entryDy=0;strokeColor=#82b366;strokeWidth=5;align=center;verticalAlign=middle;fontFamily=Helvetica;fontSize=11;fontColor=default;labelBackgroundColor=default;endArrow=classic;fillColor=#d5e8d4;" parent="jnYnYD-Lr_v4huSXKw8x-151" source="jnYnYD-Lr_v4huSXKw8x-154" target="jnYnYD-Lr_v4huSXKw8x-158" edge="1">
          <mxGeometry relative="1" as="geometry" />
        </mxCell>
        <mxCell id="jnYnYD-Lr_v4huSXKw8x-162" style="edgeStyle=orthogonalEdgeStyle;shape=connector;rounded=0;orthogonalLoop=1;jettySize=auto;html=1;entryX=0;entryY=0.5;entryDx=0;entryDy=0;strokeColor=#82b366;strokeWidth=5;align=center;verticalAlign=middle;fontFamily=Helvetica;fontSize=11;fontColor=default;labelBackgroundColor=default;endArrow=classic;fillColor=#d5e8d4;" parent="jnYnYD-Lr_v4huSXKw8x-151" source="jnYnYD-Lr_v4huSXKw8x-154" target="jnYnYD-Lr_v4huSXKw8x-159" edge="1">
          <mxGeometry relative="1" as="geometry" />
        </mxCell>
        <mxCell id="jnYnYD-Lr_v4huSXKw8x-154" value="Mesh Construction" style="rounded=1;whiteSpace=wrap;html=1;fillColor=#e1d5e7;strokeColor=#9673a6;" parent="jnYnYD-Lr_v4huSXKw8x-151" vertex="1">
          <mxGeometry x="41" y="159.69" width="160" height="78.75" as="geometry" />
        </mxCell>
        <mxCell id="jnYnYD-Lr_v4huSXKw8x-157" value="Poisson reconstruction" style="rounded=1;whiteSpace=wrap;html=1;fillColor=#e1d5e7;strokeColor=#9673a6;" parent="jnYnYD-Lr_v4huSXKw8x-151" vertex="1">
          <mxGeometry x="280" y="78.13" width="80" height="40" as="geometry" />
        </mxCell>
        <mxCell id="jnYnYD-Lr_v4huSXKw8x-158" value="Delaunay triangulation" style="rounded=1;whiteSpace=wrap;html=1;fillColor=#e1d5e7;strokeColor=#9673a6;" parent="jnYnYD-Lr_v4huSXKw8x-151" vertex="1">
          <mxGeometry x="280" y="180.62" width="80" height="40" as="geometry" />
        </mxCell>
        <mxCell id="jnYnYD-Lr_v4huSXKw8x-159" value="Marching Cubes" style="rounded=1;whiteSpace=wrap;html=1;fillColor=#e1d5e7;strokeColor=#9673a6;" parent="jnYnYD-Lr_v4huSXKw8x-151" vertex="1">
          <mxGeometry x="280" y="280" width="80" height="40" as="geometry" />
        </mxCell>
        <mxCell id="jnYnYD-Lr_v4huSXKw8x-167" value="Mesh Processing" style="swimlane;whiteSpace=wrap;html=1;startSize=40;fillColor=#f8cecc;strokeColor=#b85450;" parent="1" vertex="1">
          <mxGeometry x="1680" y="920" width="480" height="360" as="geometry" />
        </mxCell>
        <mxCell id="jnYnYD-Lr_v4huSXKw8x-181" style="edgeStyle=orthogonalEdgeStyle;shape=connector;rounded=0;orthogonalLoop=1;jettySize=auto;html=1;exitX=0.5;exitY=1;exitDx=0;exitDy=0;entryX=0.5;entryY=0;entryDx=0;entryDy=0;strokeColor=#6c8ebf;strokeWidth=5;align=center;verticalAlign=middle;fontFamily=Helvetica;fontSize=11;fontColor=default;labelBackgroundColor=default;endArrow=classic;fillColor=#dae8fc;" parent="jnYnYD-Lr_v4huSXKw8x-167" source="jnYnYD-Lr_v4huSXKw8x-175" target="jnYnYD-Lr_v4huSXKw8x-176" edge="1">
          <mxGeometry relative="1" as="geometry" />
        </mxCell>
        <mxCell id="jnYnYD-Lr_v4huSXKw8x-175" value="Simplify" style="rounded=1;whiteSpace=wrap;html=1;fillColor=#e1d5e7;strokeColor=#9673a6;" parent="jnYnYD-Lr_v4huSXKw8x-167" vertex="1">
          <mxGeometry x="40" y="81.25" width="160" height="80" as="geometry" />
        </mxCell>
        <mxCell id="jnYnYD-Lr_v4huSXKw8x-182" style="edgeStyle=orthogonalEdgeStyle;shape=connector;rounded=0;orthogonalLoop=1;jettySize=auto;html=1;entryX=0;entryY=0.5;entryDx=0;entryDy=0;strokeColor=#6c8ebf;strokeWidth=5;align=center;verticalAlign=middle;fontFamily=Helvetica;fontSize=11;fontColor=default;labelBackgroundColor=default;endArrow=classic;fillColor=#dae8fc;" parent="jnYnYD-Lr_v4huSXKw8x-167" source="jnYnYD-Lr_v4huSXKw8x-176" target="jnYnYD-Lr_v4huSXKw8x-177" edge="1">
          <mxGeometry relative="1" as="geometry" />
        </mxCell>
        <mxCell id="jnYnYD-Lr_v4huSXKw8x-176" value="Decimate" style="rounded=1;whiteSpace=wrap;html=1;fillColor=#e1d5e7;strokeColor=#9673a6;" parent="jnYnYD-Lr_v4huSXKw8x-167" vertex="1">
          <mxGeometry x="40" y="240" width="160" height="80" as="geometry" />
        </mxCell>
        <mxCell id="jnYnYD-Lr_v4huSXKw8x-177" value="Subdivide" style="rounded=1;whiteSpace=wrap;html=1;fillColor=#e1d5e7;strokeColor=#9673a6;" parent="jnYnYD-Lr_v4huSXKw8x-167" vertex="1">
          <mxGeometry x="280" y="160" width="160" height="80" as="geometry" />
        </mxCell>
        <mxCell id="jnYnYD-Lr_v4huSXKw8x-183" value="Texture Mapping" style="swimlane;whiteSpace=wrap;html=1;startSize=40;fillColor=#f8cecc;strokeColor=#b85450;" parent="1" vertex="1">
          <mxGeometry x="2240" y="920" width="480" height="360" as="geometry" />
        </mxCell>
        <mxCell id="jnYnYD-Lr_v4huSXKw8x-193" style="edgeStyle=orthogonalEdgeStyle;shape=connector;rounded=0;orthogonalLoop=1;jettySize=auto;html=1;entryX=0;entryY=0.5;entryDx=0;entryDy=0;strokeColor=#82b366;strokeWidth=5;align=center;verticalAlign=middle;fontFamily=Helvetica;fontSize=11;fontColor=default;labelBackgroundColor=default;endArrow=classic;fillColor=#d5e8d4;" parent="jnYnYD-Lr_v4huSXKw8x-183" source="jnYnYD-Lr_v4huSXKw8x-185" target="jnYnYD-Lr_v4huSXKw8x-190" edge="1">
          <mxGeometry relative="1" as="geometry" />
        </mxCell>
        <mxCell id="jnYnYD-Lr_v4huSXKw8x-194" style="edgeStyle=orthogonalEdgeStyle;shape=connector;rounded=0;orthogonalLoop=1;jettySize=auto;html=1;entryX=0;entryY=0.5;entryDx=0;entryDy=0;strokeColor=#82b366;strokeWidth=5;align=center;verticalAlign=middle;fontFamily=Helvetica;fontSize=11;fontColor=default;labelBackgroundColor=default;endArrow=classic;fillColor=#d5e8d4;" parent="jnYnYD-Lr_v4huSXKw8x-183" source="jnYnYD-Lr_v4huSXKw8x-185" target="jnYnYD-Lr_v4huSXKw8x-191" edge="1">
          <mxGeometry relative="1" as="geometry" />
        </mxCell>
        <mxCell id="jnYnYD-Lr_v4huSXKw8x-185" value="Unwrap UVs" style="rounded=1;whiteSpace=wrap;html=1;fillColor=#e1d5e7;strokeColor=#9673a6;" parent="jnYnYD-Lr_v4huSXKw8x-183" vertex="1">
          <mxGeometry x="40" y="160" width="160" height="80" as="geometry" />
        </mxCell>
        <mxCell id="jnYnYD-Lr_v4huSXKw8x-190" value="Project textures" style="rounded=1;whiteSpace=wrap;html=1;fillColor=#e1d5e7;strokeColor=#9673a6;" parent="jnYnYD-Lr_v4huSXKw8x-183" vertex="1">
          <mxGeometry x="280" y="81.25" width="80" height="40" as="geometry" />
        </mxCell>
        <mxCell id="jnYnYD-Lr_v4huSXKw8x-191" value="Paint textures" style="rounded=1;whiteSpace=wrap;html=1;fillColor=#e1d5e7;strokeColor=#9673a6;" parent="jnYnYD-Lr_v4huSXKw8x-183" vertex="1">
          <mxGeometry x="280" y="280" width="80" height="40" as="geometry" />
        </mxCell>
        <mxCell id="jnYnYD-Lr_v4huSXKw8x-192" style="edgeStyle=orthogonalEdgeStyle;shape=connector;rounded=0;orthogonalLoop=1;jettySize=auto;html=1;entryX=0;entryY=0.5;entryDx=0;entryDy=0;strokeColor=#6c8ebf;strokeWidth=5;align=center;verticalAlign=middle;fontFamily=Helvetica;fontSize=11;fontColor=default;labelBackgroundColor=default;endArrow=classic;fillColor=#dae8fc;" parent="1" source="jnYnYD-Lr_v4huSXKw8x-177" target="jnYnYD-Lr_v4huSXKw8x-185" edge="1">
          <mxGeometry relative="1" as="geometry" />
        </mxCell>
        <mxCell id="jnYnYD-Lr_v4huSXKw8x-218" style="edgeStyle=orthogonalEdgeStyle;shape=connector;rounded=0;orthogonalLoop=1;jettySize=auto;html=1;entryX=0;entryY=0.5;entryDx=0;entryDy=0;strokeColor=#6c8ebf;strokeWidth=5;align=center;verticalAlign=middle;fontFamily=Helvetica;fontSize=11;fontColor=default;labelBackgroundColor=default;endArrow=classic;fillColor=#dae8fc;" parent="1" source="jnYnYD-Lr_v4huSXKw8x-142" target="jnYnYD-Lr_v4huSXKw8x-154" edge="1">
          <mxGeometry relative="1" as="geometry">
            <Array as="points">
              <mxPoint x="1080" y="1160" />
              <mxPoint x="1080" y="1119" />
            </Array>
          </mxGeometry>
        </mxCell>
        <mxCell id="jnYnYD-Lr_v4huSXKw8x-219" style="edgeStyle=orthogonalEdgeStyle;shape=connector;rounded=0;orthogonalLoop=1;jettySize=auto;html=1;strokeColor=#6c8ebf;strokeWidth=5;align=center;verticalAlign=middle;fontFamily=Helvetica;fontSize=11;fontColor=default;labelBackgroundColor=default;endArrow=classic;fillColor=#dae8fc;" parent="1" source="jnYnYD-Lr_v4huSXKw8x-141" target="jnYnYD-Lr_v4huSXKw8x-154" edge="1">
          <mxGeometry relative="1" as="geometry">
            <Array as="points">
              <mxPoint x="1080" y="1039" />
              <mxPoint x="1080" y="1119" />
            </Array>
          </mxGeometry>
        </mxCell>
        <mxCell id="jnYnYD-Lr_v4huSXKw8x-220" style="edgeStyle=orthogonalEdgeStyle;shape=connector;rounded=0;orthogonalLoop=1;jettySize=auto;html=1;entryX=0;entryY=0.5;entryDx=0;entryDy=0;strokeColor=#82B366;strokeWidth=5;align=center;verticalAlign=middle;fontFamily=Helvetica;fontSize=11;fontColor=default;labelBackgroundColor=default;endArrow=classic;fillColor=#dae8fc;" parent="1" source="jnYnYD-Lr_v4huSXKw8x-157" target="jnYnYD-Lr_v4huSXKw8x-175" edge="1">
          <mxGeometry relative="1" as="geometry">
            <Array as="points">
              <mxPoint x="1640" y="1018" />
              <mxPoint x="1640" y="1041" />
            </Array>
          </mxGeometry>
        </mxCell>
        <mxCell id="jnYnYD-Lr_v4huSXKw8x-221" style="edgeStyle=orthogonalEdgeStyle;shape=connector;rounded=0;orthogonalLoop=1;jettySize=auto;html=1;entryX=0;entryY=0.5;entryDx=0;entryDy=0;strokeColor=#82B366;strokeWidth=5;align=center;verticalAlign=middle;fontFamily=Helvetica;fontSize=11;fontColor=default;labelBackgroundColor=default;endArrow=classic;fillColor=#dae8fc;" parent="1" source="jnYnYD-Lr_v4huSXKw8x-158" target="jnYnYD-Lr_v4huSXKw8x-175" edge="1">
          <mxGeometry relative="1" as="geometry">
            <Array as="points">
              <mxPoint x="1640" y="1121" />
              <mxPoint x="1640" y="1041" />
            </Array>
          </mxGeometry>
        </mxCell>
        <mxCell id="jnYnYD-Lr_v4huSXKw8x-222" style="edgeStyle=orthogonalEdgeStyle;shape=connector;rounded=0;orthogonalLoop=1;jettySize=auto;html=1;entryX=0;entryY=0.5;entryDx=0;entryDy=0;strokeColor=#82B366;strokeWidth=5;align=center;verticalAlign=middle;fontFamily=Helvetica;fontSize=11;fontColor=default;labelBackgroundColor=default;endArrow=classic;fillColor=#dae8fc;" parent="1" source="jnYnYD-Lr_v4huSXKw8x-159" target="jnYnYD-Lr_v4huSXKw8x-175" edge="1">
          <mxGeometry relative="1" as="geometry">
            <Array as="points">
              <mxPoint x="1640" y="1220" />
              <mxPoint x="1640" y="1041" />
            </Array>
          </mxGeometry>
        </mxCell>
        <mxCell id="jnYnYD-Lr_v4huSXKw8x-223" style="edgeStyle=orthogonalEdgeStyle;shape=connector;rounded=0;orthogonalLoop=1;jettySize=auto;html=1;strokeColor=#82B366;strokeWidth=5;align=center;verticalAlign=middle;fontFamily=Helvetica;fontSize=11;fontColor=default;labelBackgroundColor=default;endArrow=classic;fillColor=#dae8fc;" parent="1" source="jnYnYD-Lr_v4huSXKw8x-191" target="jnYnYD-Lr_v4huSXKw8x-203" edge="1">
          <mxGeometry relative="1" as="geometry">
            <Array as="points">
              <mxPoint x="2760" y="1220" />
              <mxPoint x="2760" y="1199" />
            </Array>
          </mxGeometry>
        </mxCell>
        <mxCell id="jnYnYD-Lr_v4huSXKw8x-224" style="edgeStyle=orthogonalEdgeStyle;shape=connector;rounded=0;orthogonalLoop=1;jettySize=auto;html=1;strokeColor=#82B366;strokeWidth=5;align=center;verticalAlign=middle;fontFamily=Helvetica;fontSize=11;fontColor=default;labelBackgroundColor=default;endArrow=classic;fillColor=#dae8fc;" parent="1" source="jnYnYD-Lr_v4huSXKw8x-190" target="jnYnYD-Lr_v4huSXKw8x-202" edge="1">
          <mxGeometry relative="1" as="geometry">
            <Array as="points">
              <mxPoint x="2760" y="1021" />
              <mxPoint x="2760" y="1037" />
            </Array>
          </mxGeometry>
        </mxCell>
        <mxCell id="jnYnYD-Lr_v4huSXKw8x-225" style="edgeStyle=orthogonalEdgeStyle;shape=connector;rounded=0;orthogonalLoop=1;jettySize=auto;html=1;entryX=0;entryY=0.5;entryDx=0;entryDy=0;strokeColor=#82B366;strokeWidth=5;align=center;verticalAlign=middle;fontFamily=Helvetica;fontSize=11;fontColor=default;labelBackgroundColor=default;endArrow=classic;fillColor=#dae8fc;" parent="1" source="jnYnYD-Lr_v4huSXKw8x-191" target="jnYnYD-Lr_v4huSXKw8x-202" edge="1">
          <mxGeometry relative="1" as="geometry">
            <Array as="points">
              <mxPoint x="2760" y="1220" />
              <mxPoint x="2760" y="1037" />
            </Array>
          </mxGeometry>
        </mxCell>
        <mxCell id="jnYnYD-Lr_v4huSXKw8x-227" style="edgeStyle=orthogonalEdgeStyle;shape=connector;rounded=0;orthogonalLoop=1;jettySize=auto;html=1;strokeColor=#6c8ebf;strokeWidth=5;align=center;verticalAlign=middle;fontFamily=Helvetica;fontSize=11;fontColor=default;labelBackgroundColor=default;endArrow=classic;fillColor=#dae8fc;" parent="1" source="jnYnYD-Lr_v4huSXKw8x-115" target="jnYnYD-Lr_v4huSXKw8x-119" edge="1">
          <mxGeometry relative="1" as="geometry" />
        </mxCell>
        <mxCell id="jnYnYD-Lr_v4huSXKw8x-230" style="edgeStyle=orthogonalEdgeStyle;shape=connector;rounded=0;orthogonalLoop=1;jettySize=auto;html=1;strokeColor=#82B366;strokeWidth=5;align=center;verticalAlign=middle;fontFamily=Helvetica;fontSize=11;fontColor=default;labelBackgroundColor=default;endArrow=classic;fillColor=#dae8fc;entryX=0;entryY=0.5;entryDx=0;entryDy=0;" parent="1" source="jnYnYD-Lr_v4huSXKw8x-107" target="jnYnYD-Lr_v4huSXKw8x-121" edge="1">
          <mxGeometry relative="1" as="geometry">
            <mxPoint x="2520" y="760.047619047619" as="targetPoint" />
            <Array as="points">
              <mxPoint x="2480" y="681" />
              <mxPoint x="2480" y="760" />
            </Array>
          </mxGeometry>
        </mxCell>
      </root>
    </mxGraphModel>
  </diagram>
</mxfile>
